{"title":"I Spit On Your Grave 2 2013 UNRATED BDRip Xvid Ac3-Projekt-R","uid":8887508,"size":1084662068,"categoryP":"video","categoryS":"movies","magnet":"?xt=urn:btih:c84264e2eae234e45cfa90acfa9e6cf8a6c9a034&amp;dn=I+Spit+On+Your+Grave+2+2013+UNRATED+BDRip+Xvid+Ac3-Projekt-R&amp;tr=udp%3A%2F%2Ftracker.openbittorrent.com%3A80&amp;tr=udp%3A%2F%2Fopen.demonii.com%3A1337&amp;tr=udp%3A%2F%2Ftracker.coppersurfer.tk%3A6969&amp;tr=udp%3A%2F%2Fexodus.desync.com%3A6969","seeders":2,"leechers":0,"uploader":"HeroMaster","files":-1,"time":1378495839,"description":"I Spit On Your Grave 2 2013 UNRATED BDRip Xvid Ac3-Projekt-R\n\n\nIMDB: http://www.imdb.com/title/tt2537176/\n\n\nSource: I.Spit.On.Your.Grave.2.2013.UNRATED.720p.BluRay.x264-PHD\n\n\nFile Info:\nFormat: AVI at 1 362 Kbps\nLength: 1.01 GiB for 1h 46mn 11s 365ms\nVideo #0: MPEG-4 Visual at 1 033 Kbps\nAspect: 720 x 304 (2.368) at 23.976 fps\nAudio #0: AC-3 at 320 Kbps, English\nInfos: 6 channels, 48.0 KHz\n\n\nFormat                                   : AVI\nFormat/Info                              : Audio Video Interleave\nFile size                                : 1.01 GiB\nDuration                                 : 1h 46mn\nOverall bit rate                         : 1 362 Kbps\nWriting library                          : VirtualDub build 32842/release\n\nVideo\nID                                       : 0\nFormat                                   : MPEG-4 Visual\nFormat profile                           : Advanced Simple@L5\nFormat settings, BVOP                    : 1\nFormat settings, QPel                    : No\nFormat settings, GMC                     : No warppoints\nFormat settings, Matrix                  : Custom\nCodec ID                                 : XVID\nCodec ID/Hint                            : XviD\nDuration                                 : 1h 46mn\nBit rate                                 : 1 033 Kbps\nWidth                                    : 720 pixels\nHeight                                   : 304 pixels\nDisplay aspect ratio                     : 2.35:1\nFrame rate                               : 23.976 fps\nColor space                              : YUV\nChroma subsampling                       : 4:2:0\nBit depth                                : 8 bits\nScan type                                : Progressive\nCompression mode                         : Lossy\nBits/(Pixel*Frame)                       : 0.197\nStream size                              : 784 MiB (76%)\nWriting library                          : XviD 64\n\nAudio\nID                                       : 1\nFormat                                   : AC-3\nFormat/Info                              : Audio Coding 3\nMode extension                           : CM (complete main)\nFormat settings, Endianness              : Big\nCodec ID                                 : 2000\nDuration                                 : 1h 46mn\nBit rate mode                            : Constant\nBit rate                                 : 320 Kbps\nChannel(s)                               : 6 channels\nChannel positions                        : Front: L C R, Side: L R, LFE\nSampling rate                            : 48.0 KHz\nBit depth                                : 16 bits\nCompression mode                         : Lossy\nStream size                              : 243 MiB (23%)\nAlignment                                : Aligned on interleaves\nInterleave, duration                     : 42 ms (1.00 video frame)\nInterleave, preload duration             : 512 ms\n\n\nPoster:\n\n &lt;a href=&quot;\nhttp://i.imgur.com/NSGBbIJ.jpg&quot; rel=&quot;nofollow&quot; target=&quot;_NEW&quot;&gt;\nhttp://i.imgur.com/NSGBbIJ.jpg&lt;/a&gt;\n\n\nScreenshots:\n\n &lt;a href=&quot;\nhttp://i.imgur.com/qDTxib5.jpg&quot; rel=&quot;nofollow&quot; target=&quot;_NEW&quot;&gt;\nhttp://i.imgur.com/qDTxib5.jpg&lt;/a&gt;\n\n\nSEED AND ENJOY!","torrent":{"xt":"urn:btih:c84264e2eae234e45cfa90acfa9e6cf8a6c9a034","amp;dn":"I+Spit+On+Your+Grave+2+2013+UNRATED+BDRip+Xvid+Ac3-Projekt-R","amp;tr":["udp%3A%2F%2Ftracker.openbittorrent.com%3A80","udp%3A%2F%2Fopen.demonii.com%3A1337","udp%3A%2F%2Ftracker.coppersurfer.tk%3A6969","udp%3A%2F%2Fexodus.desync.com%3A6969"],"infoHash":"c84264e2eae234e45cfa90acfa9e6cf8a6c9a034","infoHashBuffer":{"type":"Buffer","data":[200,66,100,226,234,226,52,228,92,250,144,172,250,158,108,248,166,201,160,52]},"announce":[],"urlList":[]}}